# xmcd
# Copyright (C) 1995-1998 Ti Kan
#
# Track frame offsets:
#       150
#       21162
#       30467
#
# Disc length: 489 seconds
#
# Revision: 0
# Processed by: cddbd v1.5.1PL0 Copyright (c) Steve Scherf et al.
# Submitted via: CD-Transfer v1.0
#
DISCID=1801e703
DTITLE=Magaari - 
DYEAR=93
DGENRE=
TTITLE0=Weiss unter blauem Himmel
TTITLE1=I love me like a fool
TTITLE2=Morgaliad
EXTD=
EXTT0=
EXTT1=
EXTT2=
PLAYORDER=
